<?xml version="1.0" encoding="UTF-8" standalone="no"?>
<svg
   xmlns:dc="http://purl.org/dc/elements/1.1/"
   xmlns:cc="http://creativecommons.org/ns#"
   xmlns:rdf="http://www.w3.org/1999/02/22-rdf-syntax-ns#"
   xmlns:svg="http://www.w3.org/2000/svg"
   xmlns="http://www.w3.org/2000/svg"
   xmlns:sodipodi="http://sodipodi.sourceforge.net/DTD/sodipodi-0.dtd"
   xmlns:inkscape="http://www.inkscape.org/namespaces/inkscape"
   width="600mm"
   height="200mm"
   viewBox="0 0 600 200"
   version="1.1"
   id="svg8"
   inkscape:version="1.0 (4035a4fb49, 2020-05-01)"
   sodipodi:docname="partitura2.svg">
  <defs
     id="defs2" />
  <sodipodi:namedview
     id="base"
     pagecolor="#ffffff"
     bordercolor="#666666"
     borderopacity="1.0"
     inkscape:pageopacity="0.0"
     inkscape:pageshadow="2"
     inkscape:zoom="0.49497475"
     inkscape:cx="736.32857"
     inkscape:cy="333.91414"
     inkscape:document-units="mm"
     inkscape:current-layer="layer1"
     inkscape:document-rotation="0"
     showgrid="false"
     inkscape:window-width="2560"
     inkscape:window-height="1377"
     inkscape:window-x="-8"
     inkscape:window-y="-8"
     inkscape:window-maximized="1" />
  <metadata
     id="metadata5">
    <rdf:RDF>
      <cc:Work
         rdf:about="">
        <dc:format>image/svg+xml</dc:format>
        <dc:type
           rdf:resource="http://purl.org/dc/dcmitype/StillImage" />
        <dc:title />
      </cc:Work>
    </rdf:RDF>
  </metadata>
  <g
     style="display:inline"
     inkscape:groupmode="layer"
     id="layer3"
     inkscape:label="partitura">
    <g
       id="g1144"
       transform="translate(1.6036172,41.159507)">
      <path
         id="path1108"
         d="M 1.8898809,22.678571 H 595.31249"
         style="fill:none;stroke:#000000;stroke-width:0.665;stroke-linecap:butt;stroke-linejoin:miter;stroke-miterlimit:4;stroke-dasharray:none;stroke-opacity:1" />
      <path
         id="path1110"
         d="M 162.52976,11.717262 V 33.261905"
         style="fill:none;stroke:#000000;stroke-width:0.665;stroke-linecap:butt;stroke-linejoin:miter;stroke-miterlimit:4;stroke-dasharray:none;stroke-opacity:1" />
      <path
         style="fill:none;stroke:#000000;stroke-width:0.665;stroke-linecap:butt;stroke-linejoin:miter;stroke-miterlimit:4;stroke-dasharray:none;stroke-opacity:1"
         d="M 309.10985,11.717262 V 33.261905"
         id="path1112" />
      <path
         id="path1114"
         d="M 454.6316,11.717262 V 33.261905"
         style="fill:none;stroke:#000000;stroke-width:0.665;stroke-linecap:butt;stroke-linejoin:miter;stroke-miterlimit:4;stroke-dasharray:none;stroke-opacity:1" />
      <path
         style="fill:none;stroke:#000000;stroke-width:0.665;stroke-linecap:butt;stroke-linejoin:miter;stroke-miterlimit:4;stroke-dasharray:none;stroke-opacity:1"
         d="M 590.62829,11.717262 V 33.261905"
         id="path1116" />
      <path
         id="path1118"
         d="M 594.86165,11.717262 V 33.261905"
         style="fill:none;stroke:#000000;stroke-width:1.965;stroke-linecap:butt;stroke-linejoin:miter;stroke-miterlimit:4;stroke-dasharray:none;stroke-opacity:1" />
      <path
         id="path1120"
         d="M 11.541705,17.096707 V 28.283363"
         style="fill:none;stroke:#000000;stroke-width:2.13801;stroke-linecap:butt;stroke-linejoin:miter;stroke-miterlimit:4;stroke-dasharray:none;stroke-opacity:1" />
      <path
         style="fill:none;stroke:#000000;stroke-width:2.13801;stroke-linecap:butt;stroke-linejoin:miter;stroke-miterlimit:4;stroke-dasharray:none;stroke-opacity:1"
         d="M 16.304208,17.096707 V 28.283363"
         id="path1122" />
      <text
         id="text1126"
         y="22.584274"
         x="23.102697"
         style="font-size:7.7611px;line-height:1.25;font-family:Arial;-inkscape-font-specification:Arial;letter-spacing:0px;stroke-width:0.264583"
         xml:space="preserve"><tspan
           style="font-style:normal;font-variant:normal;font-weight:bold;font-stretch:normal;font-size:15.5222px;font-family:'Adobe Garamond Pro';-inkscape-font-specification:'Adobe Garamond Pro Bold';stroke-width:0.264583"
           y="22.584274"
           x="23.102697"
           id="tspan1124"
           sodipodi:role="line">4</tspan></text>
      <text
         xml:space="preserve"
         style="font-size:7.7611px;line-height:1.25;font-family:Arial;-inkscape-font-specification:Arial;letter-spacing:0px;stroke-width:0.264583"
         x="23.102697"
         y="33.696785"
         id="text1130"><tspan
           sodipodi:role="line"
           id="tspan1128"
           x="23.102697"
           y="33.696785"
           style="font-style:normal;font-variant:normal;font-weight:bold;font-stretch:normal;font-size:15.5222px;font-family:'Adobe Garamond Pro';-inkscape-font-specification:'Adobe Garamond Pro Bold';stroke-width:0.264583">4</tspan></text>
    </g>
  </g>
  <g
     inkscape:groupmode="layer"
     id="layer5"
     inkscape:label="ritmo"
     style="display:none">
    <g
       style="display:inline"
       id="nota-1"
       transform="translate(7.9536176,41.159507)">
      <path
         style="fill:#000000;fill-opacity:1;stroke:none;stroke-width:0.264583px;stroke-linecap:butt;stroke-linejoin:miter;stroke-opacity:1"
         d="m 49.666767,20.844648 c -0.936237,-1.156666 -3.088252,-1.31525 -4.417304,-0.645893 -1.559537,0.785437 -3.252122,3.051238 -2.476925,4.61589 0.687086,1.386808 3.140638,1.426819 4.468921,0.69395 0.96573,-0.532833 1.836808,-1.388711 2.278627,-2.399325 0.238813,-0.546258 0.487922,-1.398185 0.349783,-1.969417 -0.03714,-0.15357 -0.102263,-0.170625 -0.203102,-0.295205 z"
         id="path878"
         sodipodi:nodetypes="sasssss" />
      <path
         style="fill:none;stroke:#000000;stroke-width:0.965;stroke-linecap:round;stroke-linejoin:miter;stroke-miterlimit:4;stroke-dasharray:none;stroke-opacity:1"
         d="M 49.422784,21.147701 V 8.318764"
         id="path880" />
    </g>
    <g
       style="display:inline"
       id="nota-1-0"
       transform="translate(41.76509,41.259948)">
      <path
         sodipodi:nodetypes="sasssss"
         id="path878-3"
         d="m 49.666767,20.844648 c -0.936237,-1.156666 -3.088252,-1.31525 -4.417304,-0.645893 -1.559537,0.785437 -3.252122,3.051238 -2.476925,4.61589 0.687086,1.386808 3.140638,1.426819 4.468921,0.69395 0.96573,-0.532833 1.836808,-1.388711 2.278627,-2.399325 0.238813,-0.546258 0.487922,-1.398185 0.349783,-1.969417 -0.03714,-0.15357 -0.102263,-0.170625 -0.203102,-0.295205 z"
         style="fill:#000000;fill-opacity:1;stroke:none;stroke-width:0.264583px;stroke-linecap:butt;stroke-linejoin:miter;stroke-opacity:1" />
      <path
         id="path880-6"
         d="M 49.422784,21.147701 V 8.318764"
         style="fill:none;stroke:#000000;stroke-width:0.965;stroke-linecap:round;stroke-linejoin:miter;stroke-miterlimit:4;stroke-dasharray:none;stroke-opacity:1" />
    </g>
    <g
       style="display:inline"
       id="nota-1-06"
       transform="translate(99.02848,40.692983)">
      <path
         sodipodi:nodetypes="sasssss"
         id="path878-1"
         d="m 49.666767,20.844648 c -0.936237,-1.156666 -3.088252,-1.31525 -4.417304,-0.645893 -1.559537,0.785437 -3.252122,3.051238 -2.476925,4.61589 0.687086,1.386808 3.140638,1.426819 4.468921,0.69395 0.96573,-0.532833 1.836808,-1.388711 2.278627,-2.399325 0.238813,-0.546258 0.487922,-1.398185 0.349783,-1.969417 -0.03714,-0.15357 -0.102263,-0.170625 -0.203102,-0.295205 z"
         style="fill:#000000;fill-opacity:1;stroke:none;stroke-width:0.264583px;stroke-linecap:butt;stroke-linejoin:miter;stroke-opacity:1" />
      <path
         id="path880-3"
         d="M 49.422784,21.147701 V 8.318764"
         style="fill:none;stroke:#000000;stroke-width:0.965;stroke-linecap:round;stroke-linejoin:miter;stroke-miterlimit:4;stroke-dasharray:none;stroke-opacity:1" />
    </g>
    <g
       style="display:inline"
       id="nota-1-2"
       transform="translate(205.39098,41.259948)">
      <path
         sodipodi:nodetypes="sasssss"
         id="path878-7"
         d="m 49.666767,20.844648 c -0.936237,-1.156666 -3.088252,-1.31525 -4.417304,-0.645893 -1.559537,0.785437 -3.252122,3.051238 -2.476925,4.61589 0.687086,1.386808 3.140638,1.426819 4.468921,0.69395 0.96573,-0.532833 1.836808,-1.388711 2.278627,-2.399325 0.238813,-0.546258 0.487922,-1.398185 0.349783,-1.969417 -0.03714,-0.15357 -0.102263,-0.170625 -0.203102,-0.295205 z"
         style="fill:#000000;fill-opacity:1;stroke:none;stroke-width:0.264583px;stroke-linecap:butt;stroke-linejoin:miter;stroke-opacity:1" />
      <path
         id="path880-4"
         d="M 49.422784,21.147701 V 8.318764"
         style="fill:none;stroke:#000000;stroke-width:0.965;stroke-linecap:round;stroke-linejoin:miter;stroke-miterlimit:4;stroke-dasharray:none;stroke-opacity:1" />
    </g>
    <g
       style="display:inline"
       id="nota-1-22"
       transform="translate(312.9252,41.070961)">
      <path
         sodipodi:nodetypes="sasssss"
         id="path878-5"
         d="m 49.666767,20.844648 c -0.936237,-1.156666 -3.088252,-1.31525 -4.417304,-0.645893 -1.559537,0.785437 -3.252122,3.051238 -2.476925,4.61589 0.687086,1.386808 3.140638,1.426819 4.468921,0.69395 0.96573,-0.532833 1.836808,-1.388711 2.278627,-2.399325 0.238813,-0.546258 0.487922,-1.398185 0.349783,-1.969417 -0.03714,-0.15357 -0.102263,-0.170625 -0.203102,-0.295205 z"
         style="fill:#000000;fill-opacity:1;stroke:none;stroke-width:0.264583px;stroke-linecap:butt;stroke-linejoin:miter;stroke-opacity:1" />
      <path
         id="path880-0"
         d="M 49.422784,21.147701 V 8.318764"
         style="fill:none;stroke:#000000;stroke-width:0.965;stroke-linecap:round;stroke-linejoin:miter;stroke-miterlimit:4;stroke-dasharray:none;stroke-opacity:1" />
    </g>
    <g
       style="display:inline"
       id="nota-1-05"
       transform="translate(382.47283,40.881972)">
      <path
         sodipodi:nodetypes="sasssss"
         id="path878-13"
         d="m 49.666767,20.844648 c -0.936237,-1.156666 -3.088252,-1.31525 -4.417304,-0.645893 -1.559537,0.785437 -3.252122,3.051238 -2.476925,4.61589 0.687086,1.386808 3.140638,1.426819 4.468921,0.69395 0.96573,-0.532833 1.836808,-1.388711 2.278627,-2.399325 0.238813,-0.546258 0.487922,-1.398185 0.349783,-1.969417 -0.03714,-0.15357 -0.102263,-0.170625 -0.203102,-0.295205 z"
         style="fill:#000000;fill-opacity:1;stroke:none;stroke-width:0.264583px;stroke-linecap:butt;stroke-linejoin:miter;stroke-opacity:1" />
      <path
         id="path880-48"
         d="M 49.422784,21.147701 V 8.318764"
         style="fill:none;stroke:#000000;stroke-width:0.965;stroke-linecap:round;stroke-linejoin:miter;stroke-miterlimit:4;stroke-dasharray:none;stroke-opacity:1" />
    </g>
    <g
       style="display:inline"
       id="nota-1-8"
       transform="translate(419.3255,40.692983)">
      <path
         sodipodi:nodetypes="sasssss"
         id="path878-8"
         d="m 49.666767,20.844648 c -0.936237,-1.156666 -3.088252,-1.31525 -4.417304,-0.645893 -1.559537,0.785437 -3.252122,3.051238 -2.476925,4.61589 0.687086,1.386808 3.140638,1.426819 4.468921,0.69395 0.96573,-0.532833 1.836808,-1.388711 2.278627,-2.399325 0.238813,-0.546258 0.487922,-1.398185 0.349783,-1.969417 -0.03714,-0.15357 -0.102263,-0.170625 -0.203102,-0.295205 z"
         style="fill:#000000;fill-opacity:1;stroke:none;stroke-width:0.264583px;stroke-linecap:butt;stroke-linejoin:miter;stroke-opacity:1" />
      <path
         id="path880-05"
         d="M 49.422784,21.147701 V 8.318764"
         style="fill:none;stroke:#000000;stroke-width:0.965;stroke-linecap:round;stroke-linejoin:miter;stroke-miterlimit:4;stroke-dasharray:none;stroke-opacity:1" />
    </g>
    <g
       style="display:inline"
       id="nota-1-3"
       transform="translate(519.11123,41.259948)">
      <path
         sodipodi:nodetypes="sasssss"
         id="path878-51"
         d="m 49.666767,20.844648 c -0.936237,-1.156666 -3.088252,-1.31525 -4.417304,-0.645893 -1.559537,0.785437 -3.252122,3.051238 -2.476925,4.61589 0.687086,1.386808 3.140638,1.426819 4.468921,0.69395 0.96573,-0.532833 1.836808,-1.388711 2.278627,-2.399325 0.238813,-0.546258 0.487922,-1.398185 0.349783,-1.969417 -0.03714,-0.15357 -0.102263,-0.170625 -0.203102,-0.295205 z"
         style="fill:#000000;fill-opacity:1;stroke:none;stroke-width:0.264583px;stroke-linecap:butt;stroke-linejoin:miter;stroke-opacity:1" />
      <path
         id="path880-67"
         d="M 49.422784,21.147701 V 8.318764"
         style="fill:none;stroke:#000000;stroke-width:0.965;stroke-linecap:round;stroke-linejoin:miter;stroke-miterlimit:4;stroke-dasharray:none;stroke-opacity:1" />
    </g>
    <g
       transform="translate(1.6036172,41.159507)"
       style="display:inline"
       id="notaSincopada-1">
      <path
         sodipodi:nodetypes="sasssss"
         id="path878-82"
         d="m 175.49654,20.567113 c -0.93624,-1.156666 -3.08826,-1.31525 -4.41731,-0.645893 -1.55953,0.785437 -3.25212,3.051238 -2.47692,4.61589 0.68708,1.386808 3.14064,1.426819 4.46892,0.69395 0.96573,-0.532833 1.83681,-1.388711 2.27863,-2.399325 0.23881,-0.546258 0.48792,-1.398185 0.34978,-1.969417 -0.0371,-0.15357 -0.10226,-0.170625 -0.2031,-0.295205 z"
         style="fill:#000000;fill-opacity:1;stroke:none;stroke-width:0.264583px;stroke-linecap:butt;stroke-linejoin:miter;stroke-opacity:1" />
      <path
         id="path880-8"
         d="M 175.25255,20.870166 V 8.0412291"
         style="fill:none;stroke:#000000;stroke-width:0.965;stroke-linecap:round;stroke-linejoin:miter;stroke-miterlimit:4;stroke-dasharray:none;stroke-opacity:1" />
      <path
         sodipodi:nodetypes="sasssss"
         id="path878-9"
         d="m 194.86782,20.850595 c -0.93624,-1.156666 -3.08825,-1.31525 -4.41731,-0.645893 -1.55953,0.785437 -3.25212,3.051238 -2.47692,4.61589 0.68708,1.386808 3.14064,1.426819 4.46892,0.69395 0.96573,-0.532833 1.83681,-1.388711 2.27863,-2.399325 0.23881,-0.546258 0.48792,-1.398185 0.34978,-1.969417 -0.0371,-0.15357 -0.10226,-0.170625 -0.2031,-0.295205 z"
         style="fill:#000000;fill-opacity:1;stroke:none;stroke-width:0.264583px;stroke-linecap:butt;stroke-linejoin:miter;stroke-opacity:1" />
      <path
         id="path880-1"
         d="M 194.62383,21.153648 V 8.3247112"
         style="fill:none;stroke:#000000;stroke-width:0.965;stroke-linecap:round;stroke-linejoin:miter;stroke-miterlimit:4;stroke-dasharray:none;stroke-opacity:1" />
      <rect
         y="4.6302085"
         x="174.76927"
         height="3.6945028"
         width="20.334084"
         id="rect1026"
         style="fill:#000000;fill-opacity:1;stroke:none;stroke-width:0.97536;stroke-linecap:round;stroke-linejoin:round;stroke-miterlimit:4;stroke-dasharray:none" />
    </g>
    <g
       style="display:inline"
       id="g1045"
       transform="translate(40.76197,41.159507)">
      <path
         style="fill:#000000;fill-opacity:1;stroke:none;stroke-width:0.264583px;stroke-linecap:butt;stroke-linejoin:miter;stroke-opacity:1"
         d="m 175.49654,20.567113 c -0.93624,-1.156666 -3.08826,-1.31525 -4.41731,-0.645893 -1.55953,0.785437 -3.25212,3.051238 -2.47692,4.61589 0.68708,1.386808 3.14064,1.426819 4.46892,0.69395 0.96573,-0.532833 1.83681,-1.388711 2.27863,-2.399325 0.23881,-0.546258 0.48792,-1.398185 0.34978,-1.969417 -0.0371,-0.15357 -0.10226,-0.170625 -0.2031,-0.295205 z"
         id="path1035"
         sodipodi:nodetypes="sasssss" />
      <path
         style="fill:none;stroke:#000000;stroke-width:0.965;stroke-linecap:round;stroke-linejoin:miter;stroke-miterlimit:4;stroke-dasharray:none;stroke-opacity:1"
         d="M 175.25255,20.870166 V 8.0412291"
         id="path1037" />
      <path
         style="fill:#000000;fill-opacity:1;stroke:none;stroke-width:0.264583px;stroke-linecap:butt;stroke-linejoin:miter;stroke-opacity:1"
         d="m 194.86782,20.850595 c -0.93624,-1.156666 -3.08825,-1.31525 -4.41731,-0.645893 -1.55953,0.785437 -3.25212,3.051238 -2.47692,4.61589 0.68708,1.386808 3.14064,1.426819 4.46892,0.69395 0.96573,-0.532833 1.83681,-1.388711 2.27863,-2.399325 0.23881,-0.546258 0.48792,-1.398185 0.34978,-1.969417 -0.0371,-0.15357 -0.10226,-0.170625 -0.2031,-0.295205 z"
         id="path1039"
         sodipodi:nodetypes="sasssss" />
      <path
         style="fill:none;stroke:#000000;stroke-width:0.965;stroke-linecap:round;stroke-linejoin:miter;stroke-miterlimit:4;stroke-dasharray:none;stroke-opacity:1"
         d="M 194.62383,21.153648 V 8.3247112"
         id="path1041" />
      <rect
         style="fill:#000000;fill-opacity:1;stroke:none;stroke-width:0.97536;stroke-linecap:round;stroke-linejoin:round;stroke-miterlimit:4;stroke-dasharray:none"
         id="rect1043"
         width="20.334084"
         height="3.6945028"
         x="174.76927"
         y="4.6302085" />
    </g>
    <g
       style="display:inline"
       transform="translate(148.18314,41.159507)"
       id="g1057">
      <path
         sodipodi:nodetypes="sasssss"
         id="path1047"
         d="m 175.49654,20.567113 c -0.93624,-1.156666 -3.08826,-1.31525 -4.41731,-0.645893 -1.55953,0.785437 -3.25212,3.051238 -2.47692,4.61589 0.68708,1.386808 3.14064,1.426819 4.46892,0.69395 0.96573,-0.532833 1.83681,-1.388711 2.27863,-2.399325 0.23881,-0.546258 0.48792,-1.398185 0.34978,-1.969417 -0.0371,-0.15357 -0.10226,-0.170625 -0.2031,-0.295205 z"
         style="fill:#000000;fill-opacity:1;stroke:none;stroke-width:0.264583px;stroke-linecap:butt;stroke-linejoin:miter;stroke-opacity:1" />
      <path
         id="path1049"
         d="M 175.25255,20.870166 V 8.0412291"
         style="fill:none;stroke:#000000;stroke-width:0.965;stroke-linecap:round;stroke-linejoin:miter;stroke-miterlimit:4;stroke-dasharray:none;stroke-opacity:1" />
      <path
         sodipodi:nodetypes="sasssss"
         id="path1051"
         d="m 194.86782,20.850595 c -0.93624,-1.156666 -3.08825,-1.31525 -4.41731,-0.645893 -1.55953,0.785437 -3.25212,3.051238 -2.47692,4.61589 0.68708,1.386808 3.14064,1.426819 4.46892,0.69395 0.96573,-0.532833 1.83681,-1.388711 2.27863,-2.399325 0.23881,-0.546258 0.48792,-1.398185 0.34978,-1.969417 -0.0371,-0.15357 -0.10226,-0.170625 -0.2031,-0.295205 z"
         style="fill:#000000;fill-opacity:1;stroke:none;stroke-width:0.264583px;stroke-linecap:butt;stroke-linejoin:miter;stroke-opacity:1" />
      <path
         id="path1053"
         d="M 194.62383,21.153648 V 8.3247112"
         style="fill:none;stroke:#000000;stroke-width:0.965;stroke-linecap:round;stroke-linejoin:miter;stroke-miterlimit:4;stroke-dasharray:none;stroke-opacity:1" />
      <rect
         y="4.6302085"
         x="174.76927"
         height="3.6945028"
         width="20.334084"
         id="rect1055"
         style="fill:#000000;fill-opacity:1;stroke:none;stroke-width:0.97536;stroke-linecap:round;stroke-linejoin:round;stroke-miterlimit:4;stroke-dasharray:none" />
    </g>
    <g
       style="display:inline"
       id="g1069"
       transform="translate(217.50441,41.159507)">
      <path
         style="fill:#000000;fill-opacity:1;stroke:none;stroke-width:0.264583px;stroke-linecap:butt;stroke-linejoin:miter;stroke-opacity:1"
         d="m 175.49654,20.567113 c -0.93624,-1.156666 -3.08826,-1.31525 -4.41731,-0.645893 -1.55953,0.785437 -3.25212,3.051238 -2.47692,4.61589 0.68708,1.386808 3.14064,1.426819 4.46892,0.69395 0.96573,-0.532833 1.83681,-1.388711 2.27863,-2.399325 0.23881,-0.546258 0.48792,-1.398185 0.34978,-1.969417 -0.0371,-0.15357 -0.10226,-0.170625 -0.2031,-0.295205 z"
         id="path1059"
         sodipodi:nodetypes="sasssss" />
      <path
         style="fill:none;stroke:#000000;stroke-width:0.965;stroke-linecap:round;stroke-linejoin:miter;stroke-miterlimit:4;stroke-dasharray:none;stroke-opacity:1"
         d="M 175.25255,20.870166 V 8.0412291"
         id="path1061" />
      <path
         style="fill:#000000;fill-opacity:1;stroke:none;stroke-width:0.264583px;stroke-linecap:butt;stroke-linejoin:miter;stroke-opacity:1"
         d="m 194.86782,20.850595 c -0.93624,-1.156666 -3.08825,-1.31525 -4.41731,-0.645893 -1.55953,0.785437 -3.25212,3.051238 -2.47692,4.61589 0.68708,1.386808 3.14064,1.426819 4.46892,0.69395 0.96573,-0.532833 1.83681,-1.388711 2.27863,-2.399325 0.23881,-0.546258 0.48792,-1.398185 0.34978,-1.969417 -0.0371,-0.15357 -0.10226,-0.170625 -0.2031,-0.295205 z"
         id="path1063"
         sodipodi:nodetypes="sasssss" />
      <path
         style="fill:none;stroke:#000000;stroke-width:0.965;stroke-linecap:round;stroke-linejoin:miter;stroke-miterlimit:4;stroke-dasharray:none;stroke-opacity:1"
         d="M 194.62383,21.153648 V 8.3247112"
         id="path1065" />
      <rect
         style="fill:#000000;fill-opacity:1;stroke:none;stroke-width:0.97536;stroke-linecap:round;stroke-linejoin:round;stroke-miterlimit:4;stroke-dasharray:none"
         id="rect1067"
         width="20.334084"
         height="3.6945028"
         x="174.76927"
         y="4.6302085" />
    </g>
    <g
       style="display:inline"
       transform="translate(354.55945,41.159507)"
       id="g1081">
      <path
         sodipodi:nodetypes="sasssss"
         id="path1071"
         d="m 175.49654,20.567113 c -0.93624,-1.156666 -3.08826,-1.31525 -4.41731,-0.645893 -1.55953,0.785437 -3.25212,3.051238 -2.47692,4.61589 0.68708,1.386808 3.14064,1.426819 4.46892,0.69395 0.96573,-0.532833 1.83681,-1.388711 2.27863,-2.399325 0.23881,-0.546258 0.48792,-1.398185 0.34978,-1.969417 -0.0371,-0.15357 -0.10226,-0.170625 -0.2031,-0.295205 z"
         style="fill:#000000;fill-opacity:1;stroke:none;stroke-width:0.264583px;stroke-linecap:butt;stroke-linejoin:miter;stroke-opacity:1" />
      <path
         id="path1073"
         d="M 175.25255,20.870166 V 8.0412291"
         style="fill:none;stroke:#000000;stroke-width:0.965;stroke-linecap:round;stroke-linejoin:miter;stroke-miterlimit:4;stroke-dasharray:none;stroke-opacity:1" />
      <path
         sodipodi:nodetypes="sasssss"
         id="path1075"
         d="m 194.86782,20.850595 c -0.93624,-1.156666 -3.08825,-1.31525 -4.41731,-0.645893 -1.55953,0.785437 -3.25212,3.051238 -2.47692,4.61589 0.68708,1.386808 3.14064,1.426819 4.46892,0.69395 0.96573,-0.532833 1.83681,-1.388711 2.27863,-2.399325 0.23881,-0.546258 0.48792,-1.398185 0.34978,-1.969417 -0.0371,-0.15357 -0.10226,-0.170625 -0.2031,-0.295205 z"
         style="fill:#000000;fill-opacity:1;stroke:none;stroke-width:0.264583px;stroke-linecap:butt;stroke-linejoin:miter;stroke-opacity:1" />
      <path
         id="path1077"
         d="M 194.62383,21.153648 V 8.3247112"
         style="fill:none;stroke:#000000;stroke-width:0.965;stroke-linecap:round;stroke-linejoin:miter;stroke-miterlimit:4;stroke-dasharray:none;stroke-opacity:1" />
      <rect
         y="4.6302085"
         x="174.76927"
         height="3.6945028"
         width="20.334084"
         id="rect1079"
         style="fill:#000000;fill-opacity:1;stroke:none;stroke-width:0.97536;stroke-linecap:round;stroke-linejoin:round;stroke-miterlimit:4;stroke-dasharray:none" />
    </g>
    <path
       transform="translate(1.6036172,41.159507)"
       style="display:inline;fill:#000000;fill-opacity:1;stroke:none;stroke-width:0.264583px;stroke-linecap:butt;stroke-linejoin:miter;stroke-opacity:1"
       d="m 114.74633,14.432554 c 4.10796,5.706343 -4.73652,4.084078 0.25106,9.071647 0.22692,0.226918 1.11103,1.351865 1.21892,1.351865 0.13853,0 -2.0665,-1.474823 -3.0736,-0.467722 -1.44377,1.443775 1.64023,4.908238 2.00452,5.34539 -0.25894,-0.848608 -0.94662,-3.168233 0.0668,-3.674955 1.27419,-0.637094 3.36248,1.25562 3.36248,0.919927 -0.006,-0.3259 0,0 -0.006,-0.3259 -1.39683,-1.691717 -1.73527,-1.791721 -2.42123,-4.135348 0.15622,-1.483814 1.99451,-2.224343 2.50397,-3.202486 0.61964,-1.239275 -3.10223,-4.479968 -3.90713,-4.882418 z"
       id="silencio"
       sodipodi:nodetypes="sssscscccccs" />
    <path
       transform="translate(1.6036172,41.159507)"
       sodipodi:nodetypes="sssscscccccs"
       id="silencio-9"
       d="m 278.32932,14.083041 c 4.10796,5.706343 -4.73652,4.084078 0.25106,9.071647 0.22692,0.226918 1.11103,1.351865 1.21892,1.351865 0.13853,0 -2.0665,-1.474823 -3.0736,-0.467722 -1.44377,1.443775 1.64023,4.908238 2.00452,5.34539 -0.25894,-0.848608 -0.94662,-3.168233 0.0668,-3.674955 1.27419,-0.637094 3.36248,1.25562 3.36248,0.919927 -0.006,-0.3259 0,0 -0.006,-0.3259 -1.39683,-1.691717 -1.73527,-1.791721 -2.42123,-4.135348 0.15622,-1.483814 1.99451,-2.224343 2.50397,-3.202486 0.61964,-1.239275 -3.10223,-4.479968 -3.90713,-4.882418 z"
       style="display:inline;fill:#000000;fill-opacity:1;stroke:none;stroke-width:0.264583px;stroke-linecap:butt;stroke-linejoin:miter;stroke-opacity:1" />
    <path
       transform="translate(1.6036172,41.159507)"
       sodipodi:nodetypes="sssscscccccs"
       id="silencio-7"
       d="m 492.11265,14.42322 c 4.10796,5.706343 -4.73651,4.084078 0.25106,9.071647 0.22692,0.226918 1.11103,1.351865 1.21892,1.351865 0.13853,0 -2.0665,-1.474823 -3.0736,-0.467722 -1.44377,1.443775 1.64023,4.908238 2.00452,5.34539 -0.25894,-0.848608 -0.94662,-3.168233 0.0668,-3.674955 1.27419,-0.637094 3.36248,1.25562 3.36248,0.919927 -0.006,-0.3259 0,0 -0.006,-0.3259 -1.39683,-1.691717 -1.73527,-1.791721 -2.42123,-4.135348 0.15622,-1.483814 1.99451,-2.224343 2.50397,-3.202486 0.61964,-1.239275 -3.10223,-4.479968 -3.90713,-4.882418 z"
       style="display:inline;fill:#000000;fill-opacity:1;stroke:none;stroke-width:0.264583px;stroke-linecap:butt;stroke-linejoin:miter;stroke-opacity:1" />
  </g>
  <g
     inkscape:groupmode="layer"
     id="layer4"
     inkscape:label="huecos"
     style="display:none" />
  <g
     inkscape:groupmode="layer"
     id="layer2"
     inkscape:label="notas"
     style="display:inline">
    <g
       id="g884"
       transform="translate(1.6036172,41.159507)">
      <g
         id="corchea0"
         transform="translate(15.345837,-0.52916667)">
        <path
           style="fill:#000000;fill-opacity:1;stroke:none;stroke-width:0.264583px;stroke-linecap:butt;stroke-linejoin:miter;stroke-opacity:1"
           d="m 274.90478,102.54479 c -0.93624,-1.15667 -3.08826,-1.31525 -4.41731,-0.64589 -1.55953,0.78543 -3.25212,3.05123 -2.47692,4.61589 0.68708,1.3868 3.14064,1.42681 4.46892,0.69395 0.96573,-0.53284 1.83681,-1.38872 2.27863,-2.39933 0.23881,-0.54626 0.48792,-1.39818 0.34978,-1.96942 -0.0371,-0.15357 -0.10226,-0.17062 -0.2031,-0.2952 z"
           id="path878-82-3"
           sodipodi:nodetypes="sasssss" />
        <path
           style="fill:none;stroke:#000000;stroke-width:0.965;stroke-linecap:round;stroke-linejoin:miter;stroke-miterlimit:4;stroke-dasharray:none;stroke-opacity:1"
           d="M 274.66079,102.84784 V 90.018904"
           id="path880-8-9" />
        <path
           style="fill:#000000;fill-opacity:1;stroke:none;stroke-width:0.264583px;stroke-linecap:butt;stroke-linejoin:miter;stroke-opacity:1"
           d="m 294.27606,102.82827 c -0.93624,-1.15667 -3.08825,-1.31525 -4.41731,-0.64589 -1.55953,0.78543 -3.25212,3.05124 -2.47692,4.61589 0.68708,1.3868 3.14064,1.42682 4.46892,0.69395 0.96573,-0.53284 1.83681,-1.38871 2.27863,-2.39933 0.23881,-0.54626 0.48792,-1.39818 0.34978,-1.96941 -0.0371,-0.15357 -0.10226,-0.17063 -0.2031,-0.29521 z"
           id="path878-9-0"
           sodipodi:nodetypes="sasssss" />
        <path
           style="fill:none;stroke:#000000;stroke-width:0.965;stroke-linecap:round;stroke-linejoin:miter;stroke-miterlimit:4;stroke-dasharray:none;stroke-opacity:1"
           d="M 294.03207,103.13132 V 90.302386"
           id="path880-1-2" />
        <rect
           style="fill:#000000;fill-opacity:1;stroke:none;stroke-width:0.97536;stroke-linecap:round;stroke-linejoin:round;stroke-miterlimit:4;stroke-dasharray:none"
           id="rect1026-5"
           width="20.334084"
           height="3.6945028"
           x="274.17752"
           y="86.607887" />
      </g>
      <g
         transform="translate(189.86667,78.779376)"
         id="negra0">
        <path
           sodipodi:nodetypes="sasssss"
           id="path878-828"
           d="m 49.666767,20.844648 c -0.936237,-1.156666 -3.088252,-1.31525 -4.417304,-0.645893 -1.559537,0.785437 -3.252122,3.051238 -2.476925,4.61589 0.687086,1.386808 3.140638,1.426819 4.468921,0.69395 0.96573,-0.532833 1.836808,-1.388711 2.278627,-2.399325 0.238813,-0.546258 0.487922,-1.398185 0.349783,-1.969417 -0.03714,-0.15357 -0.102263,-0.170625 -0.203102,-0.295205 z"
           style="fill:#000000;fill-opacity:1;stroke:none;stroke-width:0.264583px;stroke-linecap:butt;stroke-linejoin:miter;stroke-opacity:1" />
        <path
           id="path880-2"
           d="M 49.422784,21.147701 V 8.318764"
           style="fill:none;stroke:#000000;stroke-width:0.965;stroke-linecap:round;stroke-linejoin:miter;stroke-miterlimit:4;stroke-dasharray:none;stroke-opacity:1" />
      </g>
      <path
         sodipodi:nodetypes="sssscscccccs"
         id="silencio0"
         d="m 350.64034,89.640891 c 4.10796,5.706343 -4.73652,4.084078 0.25106,9.071644 0.22692,0.22692 1.11103,1.351865 1.21892,1.351865 0.13853,0 -2.0665,-1.474825 -3.0736,-0.467717 -1.44377,1.443767 1.64023,4.908227 2.00452,5.345387 -0.25894,-0.84861 -0.94662,-3.16824 0.0668,-3.67496 1.27419,-0.63709 3.36248,1.25562 3.36248,0.91993 -0.006,-0.3259 0,0 -0.006,-0.3259 -1.39683,-1.69172 -1.73527,-1.79172 -2.42123,-4.135345 0.15622,-1.483814 1.99451,-2.224343 2.50397,-3.202486 0.61964,-1.239275 -3.10223,-4.479968 -3.90713,-4.882418 z"
         style="fill:#000000;fill-opacity:1;stroke:none;stroke-width:0.264583px;stroke-linecap:butt;stroke-linejoin:miter;stroke-opacity:1" />
      <rect
         style="fill:none;fill-opacity:1;stroke:#b0b0b0;stroke-width:0.799999;stroke-linecap:round;stroke-linejoin:round;stroke-miterlimit:4;stroke-dasharray:0.799999, 3.2;stroke-dashoffset:4.55999;stroke-opacity:1"
         id="recipienteNota0"
         width="40.090431"
         height="37.417732"
         x="217.4014"
         y="78.582611" />
      <rect
         y="78.582611"
         x="276.1387"
         height="37.417732"
         width="40.090431"
         id="recipienteNota1"
         style="fill:none;fill-opacity:1;stroke:#b0b0b0;stroke-width:0.799999;stroke-linecap:round;stroke-linejoin:round;stroke-miterlimit:4;stroke-dasharray:0.799999, 3.2;stroke-dashoffset:4.55999;stroke-opacity:1" />
      <rect
         style="fill:none;fill-opacity:1;stroke:#b0b0b0;stroke-width:0.799999;stroke-linecap:round;stroke-linejoin:round;stroke-miterlimit:4;stroke-dasharray:0.799999, 3.2;stroke-dashoffset:4.55999;stroke-opacity:1"
         id="recipienteNota2"
         width="40.090431"
         height="37.417732"
         x="331.70206"
         y="78.582611" />
    </g>
  </g>
  <g
     inkscape:label="wrappers-4-tiempos"
     id="layer1"
     inkscape:groupmode="layer">
    <rect
       y="38.023621"
       x="38.885189"
       height="49.647388"
       width="120.42479"
       id="wrapper-0-notas"
       style="fill:none;stroke:#b0b0b0;stroke-width:0.867763;stroke-linecap:round;stroke-linejoin:round;stroke-dasharray:0.867763, 3.47106;stroke-dashoffset:4.94624" />
    <rect
       ry="0"
       style="fill:none;stroke:#b0b0b0;stroke-width:0.867763;stroke-linecap:round;stroke-linejoin:round;stroke-dasharray:0.867763, 3.47106;stroke-dashoffset:4.94624"
       id="wrapper-1-notas"
       width="138.06458"
       height="49.647381"
       x="168.5305"
       y="38.023621" />
    <rect
       y="38.023621"
       x="314.58023"
       height="49.647381"
       width="138.06458"
       id="wrapper-2-notas"
       style="fill:none;stroke:#b0b0b0;stroke-width:0.867763;stroke-linecap:round;stroke-linejoin:round;stroke-dasharray:0.867763, 3.47106;stroke-dashoffset:4.94624"
       ry="0" />
    <rect
       ry="0"
       style="fill:none;stroke:#b0b0b0;stroke-width:0.867763;stroke-linecap:round;stroke-linejoin:round;stroke-dasharray:0.867763, 3.47106;stroke-dashoffset:4.94624"
       id="wrapper-3-notas"
       width="128.44284"
       height="49.647385"
       x="460.63248"
       y="38.023621" />
  </g>
</svg>
