<?xml version="1.0" encoding="UTF-8" standalone="no"?>
<svg
   xmlns:dc="http://purl.org/dc/elements/1.1/"
   xmlns:cc="http://creativecommons.org/ns#"
   xmlns:rdf="http://www.w3.org/1999/02/22-rdf-syntax-ns#"
   xmlns:svg="http://www.w3.org/2000/svg"
   xmlns="http://www.w3.org/2000/svg"
   xmlns:sodipodi="http://sodipodi.sourceforge.net/DTD/sodipodi-0.dtd"
   xmlns:inkscape="http://www.inkscape.org/namespaces/inkscape"
   sodipodi:docname="partitura.svg"
   inkscape:version="1.0 (4035a4fb49, 2020-05-01)"
   id="svg8"
   version="1.1"
   viewBox="0 0 600 40"
   height="40mm"
   width="600mm">
  <defs
     id="defs2" />
  <sodipodi:namedview
     inkscape:window-maximized="1"
     inkscape:window-y="-8"
     inkscape:window-x="-8"
     inkscape:window-height="1377"
     inkscape:window-width="2560"
     showgrid="false"
     inkscape:document-rotation="0"
     inkscape:current-layer="layer4"
     inkscape:document-units="mm"
     inkscape:cy="91.477531"
     inkscape:cx="942.90477"
     inkscape:zoom="0.98994949"
     inkscape:pageshadow="2"
     inkscape:pageopacity="0.0"
     borderopacity="1.0"
     bordercolor="#666666"
     pagecolor="#ffffff"
     id="base" />
  <metadata
     id="metadata5">
    <rdf:RDF>
      <cc:Work
         rdf:about="">
        <dc:format>image/svg+xml</dc:format>
        <dc:type
           rdf:resource="http://purl.org/dc/dcmitype/StillImage" />
        <dc:title></dc:title>
      </cc:Work>
    </rdf:RDF>
  </metadata>
  <g
     sodipodi:insensitive="true"
     inkscape:label="partitura"
     id="layer3"
     inkscape:groupmode="layer">
    <g
       id="g1144">
      <path
         style="fill:none;stroke:#000000;stroke-width:0.665;stroke-linecap:butt;stroke-linejoin:miter;stroke-miterlimit:4;stroke-dasharray:none;stroke-opacity:1"
         d="M 1.8898809,22.678571 H 595.31249"
         id="path1108" />
      <path
         style="fill:none;stroke:#000000;stroke-width:0.665;stroke-linecap:butt;stroke-linejoin:miter;stroke-miterlimit:4;stroke-dasharray:none;stroke-opacity:1"
         d="M 162.52976,11.717262 V 33.261905"
         id="path1110" />
      <path
         id="path1112"
         d="M 309.10985,11.717262 V 33.261905"
         style="fill:none;stroke:#000000;stroke-width:0.665;stroke-linecap:butt;stroke-linejoin:miter;stroke-miterlimit:4;stroke-dasharray:none;stroke-opacity:1" />
      <path
         style="fill:none;stroke:#000000;stroke-width:0.665;stroke-linecap:butt;stroke-linejoin:miter;stroke-miterlimit:4;stroke-dasharray:none;stroke-opacity:1"
         d="M 454.6316,11.717262 V 33.261905"
         id="path1114" />
      <path
         id="path1116"
         d="M 590.62829,11.717262 V 33.261905"
         style="fill:none;stroke:#000000;stroke-width:0.665;stroke-linecap:butt;stroke-linejoin:miter;stroke-miterlimit:4;stroke-dasharray:none;stroke-opacity:1" />
      <path
         style="fill:none;stroke:#000000;stroke-width:1.965;stroke-linecap:butt;stroke-linejoin:miter;stroke-miterlimit:4;stroke-dasharray:none;stroke-opacity:1"
         d="M 594.86165,11.717262 V 33.261905"
         id="path1118" />
      <path
         style="fill:none;stroke:#000000;stroke-width:2.13801;stroke-linecap:butt;stroke-linejoin:miter;stroke-miterlimit:4;stroke-dasharray:none;stroke-opacity:1"
         d="M 11.541705,17.096707 V 28.283363"
         id="path1120" />
      <path
         id="path1122"
         d="M 16.304208,17.096707 V 28.283363"
         style="fill:none;stroke:#000000;stroke-width:2.13801;stroke-linecap:butt;stroke-linejoin:miter;stroke-miterlimit:4;stroke-dasharray:none;stroke-opacity:1" />
      <text
         xml:space="preserve"
         style="font-size:7.7611px;line-height:1.25;font-family:Arial;-inkscape-font-specification:Arial;letter-spacing:0px;stroke-width:0.264583"
         x="23.102697"
         y="22.584274"
         id="text1126"><tspan
           sodipodi:role="line"
           id="tspan1124"
           x="23.102697"
           y="22.584274"
           style="font-style:normal;font-variant:normal;font-weight:bold;font-stretch:normal;font-size:15.5222px;font-family:'Adobe Garamond Pro';-inkscape-font-specification:'Adobe Garamond Pro Bold';stroke-width:0.264583">4</tspan></text>
      <text
         id="text1130"
         y="33.696785"
         x="23.102697"
         style="font-size:7.7611px;line-height:1.25;font-family:Arial;-inkscape-font-specification:Arial;letter-spacing:0px;stroke-width:0.264583"
         xml:space="preserve"><tspan
           style="font-style:normal;font-variant:normal;font-weight:bold;font-stretch:normal;font-size:15.5222px;font-family:'Adobe Garamond Pro';-inkscape-font-specification:'Adobe Garamond Pro Bold';stroke-width:0.264583"
           y="33.696785"
           x="23.102697"
           id="tspan1128"
           sodipodi:role="line">4</tspan></text>
    </g>
  </g>
  <g
     inkscape:label="huecos"
     id="layer4"
     inkscape:groupmode="layer">
    <rect
       y="1.5765799"
       x="165.68539"
       height="36.221352"
       width="32.615616"
       id="hueco-"
       style="fill:none;fill-opacity:1;stroke:#b0b0b0;stroke-width:0.780516;stroke-linecap:round;stroke-linejoin:round;stroke-miterlimit:4;stroke-dasharray:0.780516, 3.12207;stroke-dashoffset:4.44894;stroke-opacity:1" />
  </g>
  <g
     sodipodi:insensitive="true"
     inkscape:label="notas"
     id="layer2"
     inkscape:groupmode="layer">
    <g
       id="g884">
      <g
         id="nota-1">
        <path
           sodipodi:nodetypes="sasssss"
           id="path878"
           d="m 49.666767,20.844648 c -0.936237,-1.156666 -3.088252,-1.31525 -4.417304,-0.645893 -1.559537,0.785437 -3.252122,3.051238 -2.476925,4.61589 0.687086,1.386808 3.140638,1.426819 4.468921,0.69395 0.96573,-0.532833 1.836808,-1.388711 2.278627,-2.399325 0.238813,-0.546258 0.487922,-1.398185 0.349783,-1.969417 -0.03714,-0.15357 -0.102263,-0.170625 -0.203102,-0.295205 z"
           style="fill:#000000;fill-opacity:1;stroke:none;stroke-width:0.264583px;stroke-linecap:butt;stroke-linejoin:miter;stroke-opacity:1" />
        <path
           id="path880"
           d="M 49.422784,21.147701 V 8.318764"
           style="fill:none;stroke:#000000;stroke-width:0.965;stroke-linecap:round;stroke-linejoin:miter;stroke-miterlimit:4;stroke-dasharray:none;stroke-opacity:1" />
      </g>
      <g
         transform="translate(30.107299,0.10044127)"
         id="nota-1-0">
        <path
           style="fill:#000000;fill-opacity:1;stroke:none;stroke-width:0.264583px;stroke-linecap:butt;stroke-linejoin:miter;stroke-opacity:1"
           d="m 49.666767,20.844648 c -0.936237,-1.156666 -3.088252,-1.31525 -4.417304,-0.645893 -1.559537,0.785437 -3.252122,3.051238 -2.476925,4.61589 0.687086,1.386808 3.140638,1.426819 4.468921,0.69395 0.96573,-0.532833 1.836808,-1.388711 2.278627,-2.399325 0.238813,-0.546258 0.487922,-1.398185 0.349783,-1.969417 -0.03714,-0.15357 -0.102263,-0.170625 -0.203102,-0.295205 z"
           id="path878-3"
           sodipodi:nodetypes="sasssss" />
        <path
           style="fill:none;stroke:#000000;stroke-width:0.965;stroke-linecap:round;stroke-linejoin:miter;stroke-miterlimit:4;stroke-dasharray:none;stroke-opacity:1"
           d="M 49.422784,21.147701 V 8.318764"
           id="path880-6" />
      </g>
      <g
         transform="translate(90.016525,-0.46652305)"
         id="nota-1-06">
        <path
           style="fill:#000000;fill-opacity:1;stroke:none;stroke-width:0.264583px;stroke-linecap:butt;stroke-linejoin:miter;stroke-opacity:1"
           d="m 49.666767,20.844648 c -0.936237,-1.156666 -3.088252,-1.31525 -4.417304,-0.645893 -1.559537,0.785437 -3.252122,3.051238 -2.476925,4.61589 0.687086,1.386808 3.140638,1.426819 4.468921,0.69395 0.96573,-0.532833 1.836808,-1.388711 2.278627,-2.399325 0.238813,-0.546258 0.487922,-1.398185 0.349783,-1.969417 -0.03714,-0.15357 -0.102263,-0.170625 -0.203102,-0.295205 z"
           id="path878-1"
           sodipodi:nodetypes="sasssss" />
        <path
           style="fill:none;stroke:#000000;stroke-width:0.965;stroke-linecap:round;stroke-linejoin:miter;stroke-miterlimit:4;stroke-dasharray:none;stroke-opacity:1"
           d="M 49.422784,21.147701 V 8.318764"
           id="path880-3" />
      </g>
      <g
         transform="translate(203.78736,0.10044125)"
         id="nota-1-2">
        <path
           style="fill:#000000;fill-opacity:1;stroke:none;stroke-width:0.264583px;stroke-linecap:butt;stroke-linejoin:miter;stroke-opacity:1"
           d="m 49.666767,20.844648 c -0.936237,-1.156666 -3.088252,-1.31525 -4.417304,-0.645893 -1.559537,0.785437 -3.252122,3.051238 -2.476925,4.61589 0.687086,1.386808 3.140638,1.426819 4.468921,0.69395 0.96573,-0.532833 1.836808,-1.388711 2.278627,-2.399325 0.238813,-0.546258 0.487922,-1.398185 0.349783,-1.969417 -0.03714,-0.15357 -0.102263,-0.170625 -0.203102,-0.295205 z"
           id="path878-7"
           sodipodi:nodetypes="sasssss" />
        <path
           style="fill:none;stroke:#000000;stroke-width:0.965;stroke-linecap:round;stroke-linejoin:miter;stroke-miterlimit:4;stroke-dasharray:none;stroke-opacity:1"
           d="M 49.422784,21.147701 V 8.318764"
           id="path880-4" />
      </g>
      <g
         transform="translate(311.32158,-0.08854697)"
         id="nota-1-22">
        <path
           style="fill:#000000;fill-opacity:1;stroke:none;stroke-width:0.264583px;stroke-linecap:butt;stroke-linejoin:miter;stroke-opacity:1"
           d="m 49.666767,20.844648 c -0.936237,-1.156666 -3.088252,-1.31525 -4.417304,-0.645893 -1.559537,0.785437 -3.252122,3.051238 -2.476925,4.61589 0.687086,1.386808 3.140638,1.426819 4.468921,0.69395 0.96573,-0.532833 1.836808,-1.388711 2.278627,-2.399325 0.238813,-0.546258 0.487922,-1.398185 0.349783,-1.969417 -0.03714,-0.15357 -0.102263,-0.170625 -0.203102,-0.295205 z"
           id="path878-5"
           sodipodi:nodetypes="sasssss" />
        <path
           style="fill:none;stroke:#000000;stroke-width:0.965;stroke-linecap:round;stroke-linejoin:miter;stroke-miterlimit:4;stroke-dasharray:none;stroke-opacity:1"
           d="M 49.422784,21.147701 V 8.318764"
           id="path880-0" />
      </g>
      <g
         transform="translate(380.8692,-0.27753492)"
         id="nota-1-05">
        <path
           style="fill:#000000;fill-opacity:1;stroke:none;stroke-width:0.264583px;stroke-linecap:butt;stroke-linejoin:miter;stroke-opacity:1"
           d="m 49.666767,20.844648 c -0.936237,-1.156666 -3.088252,-1.31525 -4.417304,-0.645893 -1.559537,0.785437 -3.252122,3.051238 -2.476925,4.61589 0.687086,1.386808 3.140638,1.426819 4.468921,0.69395 0.96573,-0.532833 1.836808,-1.388711 2.278627,-2.399325 0.238813,-0.546258 0.487922,-1.398185 0.349783,-1.969417 -0.03714,-0.15357 -0.102263,-0.170625 -0.203102,-0.295205 z"
           id="path878-13"
           sodipodi:nodetypes="sasssss" />
        <path
           style="fill:none;stroke:#000000;stroke-width:0.965;stroke-linecap:round;stroke-linejoin:miter;stroke-miterlimit:4;stroke-dasharray:none;stroke-opacity:1"
           d="M 49.422784,21.147701 V 8.318764"
           id="path880-48" />
      </g>
      <g
         transform="translate(417.72188,-0.46652302)"
         id="nota-1-8">
        <path
           style="fill:#000000;fill-opacity:1;stroke:none;stroke-width:0.264583px;stroke-linecap:butt;stroke-linejoin:miter;stroke-opacity:1"
           d="m 49.666767,20.844648 c -0.936237,-1.156666 -3.088252,-1.31525 -4.417304,-0.645893 -1.559537,0.785437 -3.252122,3.051238 -2.476925,4.61589 0.687086,1.386808 3.140638,1.426819 4.468921,0.69395 0.96573,-0.532833 1.836808,-1.388711 2.278627,-2.399325 0.238813,-0.546258 0.487922,-1.398185 0.349783,-1.969417 -0.03714,-0.15357 -0.102263,-0.170625 -0.203102,-0.295205 z"
           id="path878-8"
           sodipodi:nodetypes="sasssss" />
        <path
           style="fill:none;stroke:#000000;stroke-width:0.965;stroke-linecap:round;stroke-linejoin:miter;stroke-miterlimit:4;stroke-dasharray:none;stroke-opacity:1"
           d="M 49.422784,21.147701 V 8.318764"
           id="path880-05" />
      </g>
      <g
         transform="translate(517.5076,0.10044124)"
         id="nota-1-3">
        <path
           style="fill:#000000;fill-opacity:1;stroke:none;stroke-width:0.264583px;stroke-linecap:butt;stroke-linejoin:miter;stroke-opacity:1"
           d="m 49.666767,20.844648 c -0.936237,-1.156666 -3.088252,-1.31525 -4.417304,-0.645893 -1.559537,0.785437 -3.252122,3.051238 -2.476925,4.61589 0.687086,1.386808 3.140638,1.426819 4.468921,0.69395 0.96573,-0.532833 1.836808,-1.388711 2.278627,-2.399325 0.238813,-0.546258 0.487922,-1.398185 0.349783,-1.969417 -0.03714,-0.15357 -0.102263,-0.170625 -0.203102,-0.295205 z"
           id="path878-51"
           sodipodi:nodetypes="sasssss" />
        <path
           style="fill:none;stroke:#000000;stroke-width:0.965;stroke-linecap:round;stroke-linejoin:miter;stroke-miterlimit:4;stroke-dasharray:none;stroke-opacity:1"
           d="M 49.422784,21.147701 V 8.318764"
           id="path880-67" />
      </g>
      <g
         id="notaSincopada-1">
        <path
           style="fill:#000000;fill-opacity:1;stroke:none;stroke-width:0.264583px;stroke-linecap:butt;stroke-linejoin:miter;stroke-opacity:1"
           d="m 175.49654,20.567113 c -0.93624,-1.156666 -3.08826,-1.31525 -4.41731,-0.645893 -1.55953,0.785437 -3.25212,3.051238 -2.47692,4.61589 0.68708,1.386808 3.14064,1.426819 4.46892,0.69395 0.96573,-0.532833 1.83681,-1.388711 2.27863,-2.399325 0.23881,-0.546258 0.48792,-1.398185 0.34978,-1.969417 -0.0371,-0.15357 -0.10226,-0.170625 -0.2031,-0.295205 z"
           id="path878-82"
           sodipodi:nodetypes="sasssss" />
        <path
           style="fill:none;stroke:#000000;stroke-width:0.965;stroke-linecap:round;stroke-linejoin:miter;stroke-miterlimit:4;stroke-dasharray:none;stroke-opacity:1"
           d="M 175.25255,20.870166 V 8.0412291"
           id="path880-8" />
        <path
           style="fill:#000000;fill-opacity:1;stroke:none;stroke-width:0.264583px;stroke-linecap:butt;stroke-linejoin:miter;stroke-opacity:1"
           d="m 194.86782,20.850595 c -0.93624,-1.156666 -3.08825,-1.31525 -4.41731,-0.645893 -1.55953,0.785437 -3.25212,3.051238 -2.47692,4.61589 0.68708,1.386808 3.14064,1.426819 4.46892,0.69395 0.96573,-0.532833 1.83681,-1.388711 2.27863,-2.399325 0.23881,-0.546258 0.48792,-1.398185 0.34978,-1.969417 -0.0371,-0.15357 -0.10226,-0.170625 -0.2031,-0.295205 z"
           id="path878-9"
           sodipodi:nodetypes="sasssss" />
        <path
           style="fill:none;stroke:#000000;stroke-width:0.965;stroke-linecap:round;stroke-linejoin:miter;stroke-miterlimit:4;stroke-dasharray:none;stroke-opacity:1"
           d="M 194.62383,21.153648 V 8.3247112"
           id="path880-1" />
        <rect
           style="fill:#000000;fill-opacity:1;stroke:none;stroke-width:0.97536;stroke-linecap:round;stroke-linejoin:round;stroke-miterlimit:4;stroke-dasharray:none"
           id="rect1026"
           width="20.334084"
           height="3.6945028"
           x="174.76927"
           y="4.6302085" />
      </g>
      <g
         transform="translate(39.158352)"
         id="g1045">
        <path
           sodipodi:nodetypes="sasssss"
           id="path1035"
           d="m 175.49654,20.567113 c -0.93624,-1.156666 -3.08826,-1.31525 -4.41731,-0.645893 -1.55953,0.785437 -3.25212,3.051238 -2.47692,4.61589 0.68708,1.386808 3.14064,1.426819 4.46892,0.69395 0.96573,-0.532833 1.83681,-1.388711 2.27863,-2.399325 0.23881,-0.546258 0.48792,-1.398185 0.34978,-1.969417 -0.0371,-0.15357 -0.10226,-0.170625 -0.2031,-0.295205 z"
           style="fill:#000000;fill-opacity:1;stroke:none;stroke-width:0.264583px;stroke-linecap:butt;stroke-linejoin:miter;stroke-opacity:1" />
        <path
           id="path1037"
           d="M 175.25255,20.870166 V 8.0412291"
           style="fill:none;stroke:#000000;stroke-width:0.965;stroke-linecap:round;stroke-linejoin:miter;stroke-miterlimit:4;stroke-dasharray:none;stroke-opacity:1" />
        <path
           sodipodi:nodetypes="sasssss"
           id="path1039"
           d="m 194.86782,20.850595 c -0.93624,-1.156666 -3.08825,-1.31525 -4.41731,-0.645893 -1.55953,0.785437 -3.25212,3.051238 -2.47692,4.61589 0.68708,1.386808 3.14064,1.426819 4.46892,0.69395 0.96573,-0.532833 1.83681,-1.388711 2.27863,-2.399325 0.23881,-0.546258 0.48792,-1.398185 0.34978,-1.969417 -0.0371,-0.15357 -0.10226,-0.170625 -0.2031,-0.295205 z"
           style="fill:#000000;fill-opacity:1;stroke:none;stroke-width:0.264583px;stroke-linecap:butt;stroke-linejoin:miter;stroke-opacity:1" />
        <path
           id="path1041"
           d="M 194.62383,21.153648 V 8.3247112"
           style="fill:none;stroke:#000000;stroke-width:0.965;stroke-linecap:round;stroke-linejoin:miter;stroke-miterlimit:4;stroke-dasharray:none;stroke-opacity:1" />
        <rect
           y="4.6302085"
           x="174.76927"
           height="3.6945028"
           width="20.334084"
           id="rect1043"
           style="fill:#000000;fill-opacity:1;stroke:none;stroke-width:0.97536;stroke-linecap:round;stroke-linejoin:round;stroke-miterlimit:4;stroke-dasharray:none" />
      </g>
      <g
         id="g1057"
         transform="translate(146.57952)">
        <path
           style="fill:#000000;fill-opacity:1;stroke:none;stroke-width:0.264583px;stroke-linecap:butt;stroke-linejoin:miter;stroke-opacity:1"
           d="m 175.49654,20.567113 c -0.93624,-1.156666 -3.08826,-1.31525 -4.41731,-0.645893 -1.55953,0.785437 -3.25212,3.051238 -2.47692,4.61589 0.68708,1.386808 3.14064,1.426819 4.46892,0.69395 0.96573,-0.532833 1.83681,-1.388711 2.27863,-2.399325 0.23881,-0.546258 0.48792,-1.398185 0.34978,-1.969417 -0.0371,-0.15357 -0.10226,-0.170625 -0.2031,-0.295205 z"
           id="path1047"
           sodipodi:nodetypes="sasssss" />
        <path
           style="fill:none;stroke:#000000;stroke-width:0.965;stroke-linecap:round;stroke-linejoin:miter;stroke-miterlimit:4;stroke-dasharray:none;stroke-opacity:1"
           d="M 175.25255,20.870166 V 8.0412291"
           id="path1049" />
        <path
           style="fill:#000000;fill-opacity:1;stroke:none;stroke-width:0.264583px;stroke-linecap:butt;stroke-linejoin:miter;stroke-opacity:1"
           d="m 194.86782,20.850595 c -0.93624,-1.156666 -3.08825,-1.31525 -4.41731,-0.645893 -1.55953,0.785437 -3.25212,3.051238 -2.47692,4.61589 0.68708,1.386808 3.14064,1.426819 4.46892,0.69395 0.96573,-0.532833 1.83681,-1.388711 2.27863,-2.399325 0.23881,-0.546258 0.48792,-1.398185 0.34978,-1.969417 -0.0371,-0.15357 -0.10226,-0.170625 -0.2031,-0.295205 z"
           id="path1051"
           sodipodi:nodetypes="sasssss" />
        <path
           style="fill:none;stroke:#000000;stroke-width:0.965;stroke-linecap:round;stroke-linejoin:miter;stroke-miterlimit:4;stroke-dasharray:none;stroke-opacity:1"
           d="M 194.62383,21.153648 V 8.3247112"
           id="path1053" />
        <rect
           style="fill:#000000;fill-opacity:1;stroke:none;stroke-width:0.97536;stroke-linecap:round;stroke-linejoin:round;stroke-miterlimit:4;stroke-dasharray:none"
           id="rect1055"
           width="20.334084"
           height="3.6945028"
           x="174.76927"
           y="4.6302085" />
      </g>
      <g
         transform="translate(215.90079)"
         id="g1069">
        <path
           sodipodi:nodetypes="sasssss"
           id="path1059"
           d="m 175.49654,20.567113 c -0.93624,-1.156666 -3.08826,-1.31525 -4.41731,-0.645893 -1.55953,0.785437 -3.25212,3.051238 -2.47692,4.61589 0.68708,1.386808 3.14064,1.426819 4.46892,0.69395 0.96573,-0.532833 1.83681,-1.388711 2.27863,-2.399325 0.23881,-0.546258 0.48792,-1.398185 0.34978,-1.969417 -0.0371,-0.15357 -0.10226,-0.170625 -0.2031,-0.295205 z"
           style="fill:#000000;fill-opacity:1;stroke:none;stroke-width:0.264583px;stroke-linecap:butt;stroke-linejoin:miter;stroke-opacity:1" />
        <path
           id="path1061"
           d="M 175.25255,20.870166 V 8.0412291"
           style="fill:none;stroke:#000000;stroke-width:0.965;stroke-linecap:round;stroke-linejoin:miter;stroke-miterlimit:4;stroke-dasharray:none;stroke-opacity:1" />
        <path
           sodipodi:nodetypes="sasssss"
           id="path1063"
           d="m 194.86782,20.850595 c -0.93624,-1.156666 -3.08825,-1.31525 -4.41731,-0.645893 -1.55953,0.785437 -3.25212,3.051238 -2.47692,4.61589 0.68708,1.386808 3.14064,1.426819 4.46892,0.69395 0.96573,-0.532833 1.83681,-1.388711 2.27863,-2.399325 0.23881,-0.546258 0.48792,-1.398185 0.34978,-1.969417 -0.0371,-0.15357 -0.10226,-0.170625 -0.2031,-0.295205 z"
           style="fill:#000000;fill-opacity:1;stroke:none;stroke-width:0.264583px;stroke-linecap:butt;stroke-linejoin:miter;stroke-opacity:1" />
        <path
           id="path1065"
           d="M 194.62383,21.153648 V 8.3247112"
           style="fill:none;stroke:#000000;stroke-width:0.965;stroke-linecap:round;stroke-linejoin:miter;stroke-miterlimit:4;stroke-dasharray:none;stroke-opacity:1" />
        <rect
           y="4.6302085"
           x="174.76927"
           height="3.6945028"
           width="20.334084"
           id="rect1067"
           style="fill:#000000;fill-opacity:1;stroke:none;stroke-width:0.97536;stroke-linecap:round;stroke-linejoin:round;stroke-miterlimit:4;stroke-dasharray:none" />
      </g>
      <g
         id="g1081"
         transform="translate(352.95582)">
        <path
           style="fill:#000000;fill-opacity:1;stroke:none;stroke-width:0.264583px;stroke-linecap:butt;stroke-linejoin:miter;stroke-opacity:1"
           d="m 175.49654,20.567113 c -0.93624,-1.156666 -3.08826,-1.31525 -4.41731,-0.645893 -1.55953,0.785437 -3.25212,3.051238 -2.47692,4.61589 0.68708,1.386808 3.14064,1.426819 4.46892,0.69395 0.96573,-0.532833 1.83681,-1.388711 2.27863,-2.399325 0.23881,-0.546258 0.48792,-1.398185 0.34978,-1.969417 -0.0371,-0.15357 -0.10226,-0.170625 -0.2031,-0.295205 z"
           id="path1071"
           sodipodi:nodetypes="sasssss" />
        <path
           style="fill:none;stroke:#000000;stroke-width:0.965;stroke-linecap:round;stroke-linejoin:miter;stroke-miterlimit:4;stroke-dasharray:none;stroke-opacity:1"
           d="M 175.25255,20.870166 V 8.0412291"
           id="path1073" />
        <path
           style="fill:#000000;fill-opacity:1;stroke:none;stroke-width:0.264583px;stroke-linecap:butt;stroke-linejoin:miter;stroke-opacity:1"
           d="m 194.86782,20.850595 c -0.93624,-1.156666 -3.08825,-1.31525 -4.41731,-0.645893 -1.55953,0.785437 -3.25212,3.051238 -2.47692,4.61589 0.68708,1.386808 3.14064,1.426819 4.46892,0.69395 0.96573,-0.532833 1.83681,-1.388711 2.27863,-2.399325 0.23881,-0.546258 0.48792,-1.398185 0.34978,-1.969417 -0.0371,-0.15357 -0.10226,-0.170625 -0.2031,-0.295205 z"
           id="path1075"
           sodipodi:nodetypes="sasssss" />
        <path
           style="fill:none;stroke:#000000;stroke-width:0.965;stroke-linecap:round;stroke-linejoin:miter;stroke-miterlimit:4;stroke-dasharray:none;stroke-opacity:1"
           d="M 194.62383,21.153648 V 8.3247112"
           id="path1077" />
        <rect
           style="fill:#000000;fill-opacity:1;stroke:none;stroke-width:0.97536;stroke-linecap:round;stroke-linejoin:round;stroke-miterlimit:4;stroke-dasharray:none"
           id="rect1079"
           width="20.334084"
           height="3.6945028"
           x="174.76927"
           y="4.6302085" />
      </g>
      <path
         sodipodi:nodetypes="sssscscccccs"
         id="silencio"
         d="m 103.63376,14.432554 c 4.10796,5.706343 -4.736514,4.084078 0.25106,9.071647 0.22692,0.226918 1.11103,1.351865 1.21892,1.351865 0.13853,0 -2.0665,-1.474823 -3.0736,-0.467722 -1.44377,1.443775 1.64023,4.908238 2.00452,5.34539 -0.25894,-0.848608 -0.94662,-3.168233 0.0668,-3.674955 1.27419,-0.637094 3.36248,1.25562 3.36248,0.919927 -0.006,-0.3259 0,0 -0.006,-0.3259 -1.39683,-1.691717 -1.73527,-1.791721 -2.42123,-4.135348 0.15622,-1.483814 1.99451,-2.224343 2.50397,-3.202486 0.61964,-1.239275 -3.10223,-4.479968 -3.90713,-4.882418 z"
         style="fill:#000000;fill-opacity:1;stroke:none;stroke-width:0.264583px;stroke-linecap:butt;stroke-linejoin:miter;stroke-opacity:1" />
      <path
         style="fill:#000000;fill-opacity:1;stroke:none;stroke-width:0.264583px;stroke-linecap:butt;stroke-linejoin:miter;stroke-opacity:1"
         d="m 278.32932,14.083041 c 4.10796,5.706343 -4.73652,4.084078 0.25106,9.071647 0.22692,0.226918 1.11103,1.351865 1.21892,1.351865 0.13853,0 -2.0665,-1.474823 -3.0736,-0.467722 -1.44377,1.443775 1.64023,4.908238 2.00452,5.34539 -0.25894,-0.848608 -0.94662,-3.168233 0.0668,-3.674955 1.27419,-0.637094 3.36248,1.25562 3.36248,0.919927 -0.006,-0.3259 0,0 -0.006,-0.3259 -1.39683,-1.691717 -1.73527,-1.791721 -2.42123,-4.135348 0.15622,-1.483814 1.99451,-2.224343 2.50397,-3.202486 0.61964,-1.239275 -3.10223,-4.479968 -3.90713,-4.882418 z"
         id="silencio-9"
         sodipodi:nodetypes="sssscscccccs" />
      <path
         style="fill:#000000;fill-opacity:1;stroke:none;stroke-width:0.264583px;stroke-linecap:butt;stroke-linejoin:miter;stroke-opacity:1"
         d="m 492.11265,14.42322 c 4.10796,5.706343 -4.73651,4.084078 0.25106,9.071647 0.22692,0.226918 1.11103,1.351865 1.21892,1.351865 0.13853,0 -2.0665,-1.474823 -3.0736,-0.467722 -1.44377,1.443775 1.64023,4.908238 2.00452,5.34539 -0.25894,-0.848608 -0.94662,-3.168233 0.0668,-3.674955 1.27419,-0.637094 3.36248,1.25562 3.36248,0.919927 -0.006,-0.3259 0,0 -0.006,-0.3259 -1.39683,-1.691717 -1.73527,-1.791721 -2.42123,-4.135348 0.15622,-1.483814 1.99451,-2.224343 2.50397,-3.202486 0.61964,-1.239275 -3.10223,-4.479968 -3.90713,-4.882418 z"
         id="silencio-7"
         sodipodi:nodetypes="sssscscccccs" />
    </g>
  </g>
</svg>
